<svg width="113" height="63" viewBox="0 0 113 63" fill="none" xmlns="http://www.w3.org/2000/svg">
<path d="M9.204 12.384V15.744H17.38V20.728H9.204V27H2.596V7.4H18.528V12.384H9.204Z" fill="#CED4DA"/>
<path d="M35.952 23.584H28.504L27.188 27H20.468L29.036 7.4H35.532L44.1 27H37.268L35.952 23.584ZM34.132 18.824L32.228 13.896L30.324 18.824H34.132Z" fill="#CED4DA"/>
<path d="M57.996 22.072H56.204V27H49.596V7.4H59.032C60.8427 7.4 62.42 7.69867 63.764 8.296C65.108 8.89333 66.144 9.752 66.872 10.872C67.6 11.992 67.964 13.2987 67.964 14.792C67.964 16.192 67.6467 17.4147 67.012 18.46C66.3773 19.5053 65.4627 20.336 64.268 20.952L68.384 27H61.328L57.996 22.072ZM61.3 14.792C61.3 14.064 61.076 13.504 60.628 13.112C60.18 12.7013 59.508 12.496 58.612 12.496H56.204V17.088H58.612C59.508 17.088 60.18 16.892 60.628 16.5C61.076 16.0893 61.3 15.52 61.3 14.792Z" fill="#CED4DA"/>
<path d="M73.596 7.4H80.204V27H73.596V7.4Z" fill="#CED4DA"/>
<path d="M15.952 52.584H8.504L7.188 56H0.468L9.036 36.4H15.532L24.1 56H17.268L15.952 52.584ZM14.132 47.824L12.228 42.896L10.324 47.824H14.132Z" fill="#CED4DA"/>
<path d="M27.596 36.4H34.204V50.876H43.052V56H27.596V36.4Z" fill="#CED4DA"/>
<path d="M48.596 36.4H55.204V56H48.596V36.4Z" fill="#CED4DA"/>
<path d="M79.916 36.4V56H74.484L67.036 47.096V56H60.596V36.4H66.028L73.476 45.304V36.4H79.916Z" fill="#CED4DA"/>
<path d="M105.6 7.596L105.6 17.256C105.6 19.44 105.199 21.3627 104.396 23.024C103.612 24.704 102.483 26.0013 101.008 26.916C99.5333 27.8493 97.7973 28.316 95.8 28.316C93.8027 28.316 92.0667 27.8493 90.592 26.916C89.1173 26.0013 87.9787 24.704 87.176 23.024C86.392 21.3627 86 19.44 86 17.256L86 7.596L105.6 7.596ZM91.152 16.976C91.152 18.3947 91.5533 19.524 92.356 20.364C93.1773 21.2227 94.3253 21.652 95.8 21.652C97.2747 21.652 98.4133 21.2227 99.216 20.364C100.037 19.524 100.448 18.3947 100.448 16.976L100.448 14.204L91.152 14.204L91.152 16.976Z" fill="#CED4DA"/>
<path d="M89.416 48.952L89.416 41.504L86 40.188L86 33.468L105.6 42.036L105.6 48.532L86 57.1L86 50.268L89.416 48.952ZM94.176 47.132L99.104 45.228L94.176 43.324L94.176 47.132Z" fill="#CED4DA"/>
</svg>
